<?xml version="1.0" encoding="UTF-8" standalone="no"?>
<svg width="512" height="512" viewBox="0 0 512 512" fill="none" xmlns="http://www.w3.org/2000/svg">
    <path d="M480 256C480 379.7 379.7 480 256 480C132.3 480 32 379.7 32 256C32 132.3 132.3 32 256 32C379.7 32 480 132.3 480 256Z" fill="white"/>
    <path d="M400 170.7L366.7 137.3C362.7 133.3 356.7 133.3 352.7 137.3L320 170L287.3 137.3C283.3 133.3 277.3 133.3 273.3 137.3L240 170L206.7 137.3C202.7 133.3 196.7 133.3 192.7 137.3L160 170L126.7 137.3C122.7 133.3 116.7 133.3 112.7 137.3L80 170V352C80 369.7 94.3 384 112 384H400V170.7ZM368 352H144V192H368V352Z" fill="#1877F2"/>
</svg> 