<?xml version="1.0" encoding="UTF-8" standalone="no"?>
<svg width="176" height="176" viewBox="0 0 176 176" fill="none" xmlns="http://www.w3.org/2000/svg">
    <path d="M160 0H16C7.2 0 0 7.2 0 16V160C0 168.8 7.2 176 16 176H160C168.8 176 176 168.8 176 160V16C176 7.2 168.8 0 160 0ZM160 160H16V16H160V160Z" fill="white"/>
    <path d="M88 40C61.5 40 40 61.5 40 88C40 114.5 61.5 136 88 136C114.5 136 136 114.5 136 88C136 61.5 114.5 40 88 40ZM88 120C70.4 120 56 105.6 56 88C56 70.4 70.4 56 88 56C105.6 56 120 70.4 120 88C120 105.6 105.6 120 88 120Z" fill="white"/>
    <path d="M96 80H80V96H96V80Z" fill="white"/>
</svg> 