<?xml version="1.0" encoding="UTF-8" standalone="no"?>
<svg width="176" height="176" viewBox="0 0 176 176" fill="none" xmlns="http://www.w3.org/2000/svg">
    <path d="M88 0C39.4 0 0 39.4 0 88C0 136.6 39.4 176 88 176C136.6 176 176 136.6 176 88C176 39.4 136.6 0 88 0ZM88 160C48.4 160 16 127.6 16 88C16 48.4 48.4 16 88 16C127.6 16 160 48.4 160 88C160 127.6 127.6 160 88 160Z" fill="white"/>
    <path d="M88 40C61.5 40 40 61.5 40 88C40 114.5 61.5 136 88 136C114.5 136 136 114.5 136 88C136 61.5 114.5 40 88 40ZM88 120C70.4 120 56 105.6 56 88C56 70.4 70.4 56 88 56C105.6 56 120 70.4 120 88C120 105.6 105.6 120 88 120Z" fill="white"/>
    <path d="M88 72C79.2 72 72 79.2 72 88C72 96.8 79.2 104 88 104C96.8 104 104 96.8 104 88C104 79.2 96.8 72 88 72Z" fill="white"/>
</svg> 